<svg xmlns="http://www.w3.org/2000/svg" xml:space="preserve" width="655.359" height="655.359" style="shape-rendering:geometricPrecision;text-rendering:geometricPrecision;image-rendering:optimizeQuality;fill-rule:evenodd;clip-rule:evenodd" viewBox="0 0 6.827 6.827"><defs><style>.fil3{fill:none}</style></defs><g id="Layer_x0020_1"><path d="M5.46 1.387H1.367a.51.51 0 0 0-.513.507v3.039c0 .278.23.507.513.507H5.46a.512.512 0 0 0 .512-.507V1.894a.51.51 0 0 0-.512-.507z" style="fill:red"/><path d="M5.46 1.487H1.367a.41.41 0 0 0-.413.407v3.039c0 .226.188.407.413.407H5.46a.412.412 0 0 0 .412-.407V1.894a.41.41 0 0 0-.412-.407z" style="fill:red"/><path style="fill:white" d="m1.422 1.95 1.991 1.232L5.405 1.95l.112.18-2.048 1.267-.056.035-.055-.035L1.31 2.131z"/><path class="fil3" d="M.853.853h5.12v5.12H.853z"/><path class="fil3" d="M0 0h6.827v6.827H0z"/></g></svg>