<svg xmlns="http://www.w3.org/2000/svg" viewBox="0 0 512 512"><g data-name="11_gym_station"><rect x="343.85" y="193.55" width="35.49" height="65.29" rx="15.42" style="fill:#dcd3d4"/><path d="M303.34 314.58c.12-.29.23-.58.34-.87h43.45v-32.54h-42v-66.64a24 24 0 0 0-24-24H269.6a24 24 0 0 0-24 24v66.64h-44.32v32.54H247c.11.29.22.58.34.87h-87.2v139.74h229.65V314.58z" style="fill:#dcd3d4"/><rect x="145.61" y="180.09" width="35.48" height="65.29" rx="15.42" style="fill:#dc4038"/><rect x="326.11" y="180.09" width="35.48" height="65.29" rx="15.42" style="fill:#dc4038"/><path style="fill:#ffeef0" d="M139.54 305.61h229.64v128.44H139.54z"/><path style="fill:#f3b5af" d="M209.85 301.43h88.12v132.91h-88.12z"/><path style="fill:#c7b4b6" d="M235.86 57.09h37.56v89.69h-37.56z"/><path d="M69.12 161.62A13.24 13.24 0 0 1 67.39 143l45.52-54.83H401l39.43 55a13.24 13.24 0 0 1-3 18.47 13.24 13.24 0 0 1-18.47-3l-31.51-44h-262l-37.69 45.25a13.23 13.23 0 0 1-18.64 1.73z" style="fill:#f3b5af"/><path style="fill:#e08476" d="M180.66 274.89h145.85v29.91H180.66z"/><path style="fill:#fff" d="M234.61 323.09h37.56V456h-37.56z"/><rect x="180.66" y="357.55" width="145.02" height="25.53" rx="11.09" style="fill:#c5b5b6"/><path d="M318.88 370.4H187.46a6.8 6.8 0 0 1-6.8-6.8 6.79 6.79 0 0 1 6.8-6.8h131.42a6.79 6.79 0 0 1 6.8 6.8 6.8 6.8 0 0 1-6.8 6.8z" style="fill:#dcd3d4"/><rect x="185.12" y="225.69" width="139.04" height="59.49" rx="24" transform="rotate(90 254.635 255.435)" style="fill:#3d5890"/><path d="M224.59 303.81v-96.75a21.15 21.15 0 0 1 21.15-21.15 21.14 21.14 0 0 1 21.14 21.15v96.75A21.13 21.13 0 0 1 245.74 325a21.14 21.14 0 0 1-21.15-21.19z" style="fill:#4966a2"/><path d="M336 245.38a9.89 9.89 0 0 1-9.89-9.89V190a9.89 9.89 0 0 1 9.89-9.89 9.89 9.89 0 0 1 9.89 9.89v45.51a9.89 9.89 0 0 1-9.89 9.87zM155.5 245.38a9.89 9.89 0 0 1-9.89-9.89V190a9.89 9.89 0 0 1 9.89-9.89 9.88 9.88 0 0 1 9.88 9.89v45.51a9.88 9.88 0 0 1-9.88 9.87z" style="fill:#f2463e"/><path d="m444.91 139.66-41.23-57.51H278.16V50H229v32.15H109.75l-47.32 57a19.24 19.24 0 0 0 14.77 31.53c.6 0 1.2 0 1.81-.09a19.1 19.1 0 0 0 13-6.86l35.78-43.1h68.66v20.15h-6.58l-29.27 33.33a21.43 21.43 0 0 0-21 21.39V230a21.44 21.44 0 0 0 21.4 21.38h4.66A21.44 21.44 0 0 0 187.09 230v-34.5a21.43 21.43 0 0 0-12.3-19.35l20.53-23.37h1.15V268.4h-21.78v31.21h-41.15V440h95.07v10H92v12h328v-12H277.73v-10h97.45V299.61h-42.67V268.4h-21.78V152.78h1.88l19.93 23.31a21.43 21.43 0 0 0-12.43 19.41V230a21.45 21.45 0 0 0 21.42 21.42h4.65A21.45 21.45 0 0 0 367.6 230v-34.5a21.44 21.44 0 0 0-21-21.39l-28.51-33.33h-7.4v-20.15h73.2l29.72 41.44a19.23 19.23 0 1 0 31.26-22.41zM175.09 195.5V230a9.43 9.43 0 0 1-9.41 9.42H161a9.43 9.43 0 0 1-9.41-9.42v-34.5a9.42 9.42 0 0 1 9.41-9.41h4.66a9.42 9.42 0 0 1 9.43 9.41zm166.44-9.41h4.65a9.43 9.43 0 0 1 9.42 9.41V230a9.44 9.44 0 0 1-9.42 9.42h-4.65a9.44 9.44 0 0 1-9.42-9.42v-34.5a9.43 9.43 0 0 1 9.42-9.41zM241 62h25.12v20.15H241zm-54.31 218.4h31.17v18.4h-31.17zm41.92-127.62h70.12V268.4h-9.38v-58.49a30 30 0 0 0-30-30h-.18v-16.48h-12v16.5a30 30 0 0 0-29.31 30v58.47h-9.39V152.78zm-20.14-12v-20.15h20.14v20.15zm32.14 0v-20.15h25.12v20.15zm37.12 0v-20.15h21v20.15zM259.35 319h-11.5a18 18 0 0 1-18-18v-91a18 18 0 0 1 18-18h11.5a18 18 0 0 1 18 18v91a18 18 0 0 1-18 18zm6.38 11.31v21.29h-25.12v-21.54a29.85 29.85 0 0 0 7.24.89h11.5a29.84 29.84 0 0 0 6.38-.69zm-120.19 13.41h64.31v-12h-64.31v-20.11h74.28a30 30 0 0 0 8.79 12.33v27.61h-36.86a17.11 17.11 0 0 0-16.39 12.28h-29.82zm0 84.32v-20.1h64.31v-12h-64.31v-20.11h29.57a17.12 17.12 0 0 0 16.64 13.24h36.86v39zm95.07 22v-60.97h25.12V450zm-12-72.93h-36.86a5.09 5.09 0 0 1-5.09-5.09v-3.35a5.09 5.09 0 0 1 5.09-5.08h122.84a5.09 5.09 0 0 1 5.09 5.08V372a5.09 5.09 0 0 1-5.09 5.09h-86zm134.57 18.87H298v12h65.23V428h-85.5v-39h36.86a17.12 17.12 0 0 0 16.64-13.24h31.95zm0-84.33v20.11h-65.31v12h65.31v20.11H331a17.11 17.11 0 0 0-16.39-12.28h-36.88v-26.95a30.17 30.17 0 0 0 9.66-13zm-42.67-31.25v18.4h-31.16v-18.4zm113-123.65a7.23 7.23 0 0 1-10.09-1.67l-33.31-46.45H122.18L82.8 156.06a7.25 7.25 0 0 1-10.19.95 7.24 7.24 0 0 1-1-10.19l43.72-52.67h282.19l37.64 52.5a7.25 7.25 0 0 1-1.67 10.1zM33.62 450h32.29v12H33.62zM446.09 450h32.29v12h-32.29z" style="fill:#142546"/></g></svg>
