<svg xmlns="http://www.w3.org/2000/svg" viewBox="0 0 256 256" style="enable-background:new 0 0 256 256" xml:space="preserve"><style>.st1{fill:#fc657e}.st5{fill:#f5c84c}.st8{fill:#edf4fc}.st19{fill:#fca265}.st29{fill:#fc8c48}</style><g id="Layer_47"><circle transform="rotate(-9.213 206.166 146.275)" cx="206.175" cy="146.308" style="fill:#3a70bf" r="47.325"/><path d="M158.911 148.745c-5.797-.915-11.269-2.1-14.794-3.61-9.181-3.934-29.356-22.159-46.7-25.185 6.579-5.94 10.718-14.533 10.718-24.096a32.263 32.263 0 0 0-6.253-19.133 9.01 9.01 0 0 1-1.022-8.894c2.036-4.775 2.966-10.132 2.434-15.767-1.485-15.719-14.382-28.246-30.138-29.274-18.914-1.234-34.64 13.742-34.64 32.392 0 2.465.276 4.866.798 7.172.332 1.469.346 2.984-.007 4.448-2.042 8.473-8.118 39.373 3.455 68.265h40.873a3.921 3.921 0 0 1 3.922 3.921v6.512a3.922 3.922 0 0 1-3.922 3.922h-.61v9.066h3.02c4.987 0 9.067 4.08 9.067 9.067v14.101c16.514 3.02 44.782 5.486 75.94-3.632-7.075-7.829-11.57-18.034-12.141-29.275z" style="fill:#f9d0b4"/><circle cx="206.175" cy="146.308" r="31.289" style="fill:#5290db"/><circle transform="rotate(-86.83 206.168 146.304)" class="st8" cx="206.175" cy="146.308" r="14.667"/><path class="st8" d="M83.634 135.063H42.366a3.922 3.922 0 0 0-3.922 3.921v6.512a3.922 3.922 0 0 0 3.922 3.922h41.268a3.922 3.922 0 0 0 3.922-3.922v-6.512a3.922 3.922 0 0 0-3.922-3.921z"/><path d="M86.044 158.485H39.956c-4.987 0-9.067 4.08-9.067 9.067v16.122c3.59 0 6.611 2.91 6.611 6.5v11c0 3.59-3.021 6.5-6.611 6.5v16.544c0 4.987 4.08 9.067 9.067 9.067h46.089c4.987 0 9.067-4.08 9.067-9.067v-56.667c-.001-4.986-4.081-9.066-9.068-9.066z" style="fill:#f98fa6"/><path class="st19" d="M18 176.674a6.5 6.5 0 0 0-6.5 6.5v11a6.5 6.5 0 1 0 13 0v-11a6.5 6.5 0 0 0-6.5-6.5zM30.889 183.674c-3.59 0-6.389 2.91-6.389 6.5v11c0 3.59 2.799 6.5 6.389 6.5s6.611-2.91 6.611-6.5v-11c0-3.59-3.021-6.5-6.611-6.5z"/><path class="st1" d="M30.889 173.643v10.031c3.59 0 6.611 2.91 6.611 6.5v11c0 3.59-3.021 6.5-6.611 6.5v9.775h64.222v-43.806H30.889z"/><path style="fill:#c7d7e5" d="M42.976 149.418h40.049v9.066H42.976z"/><path class="st29" d="M11.5 188.674v5.5a6.5 6.5 0 1 0 13 0v-5.5h-13zM24.5 195.674v5.5c0 3.59 2.799 6.5 6.389 6.5s6.611-2.91 6.611-6.5v-5.5h-13z"/><path d="M97.684 117.455c-3.798-.644-7.328-.569-10.493.223a2.5 2.5 0 0 0 1.212 4.851c2.491-.623 5.332-.671 8.444-.144a2.5 2.5 0 0 0 .837-4.93zM77.401 106.262c-7.076-11.322-2.918-24.355-2.875-24.485a2.5 2.5 0 0 0-4.745-1.576c-.207.621-4.97 15.351 3.38 28.712a2.499 2.499 0 0 0 3.446.795 2.503 2.503 0 0 0 .794-3.446zM206.175 96.483c-27.474 0-49.825 22.352-49.825 49.825s22.352 49.825 49.825 49.825S256 173.782 256 146.308s-22.352-49.825-49.825-49.825zm0 94.65c-24.717 0-44.825-20.108-44.825-44.825 0-24.717 20.108-44.825 44.825-44.825S251 121.591 251 146.308c0 24.716-20.108 44.825-44.825 44.825z"/><path d="M172.843 177.505a2.5 2.5 0 0 0-3.095-1.71c-29.434 8.481-56.181 6.603-73.435 3.533a2.5 2.5 0 1 0-.876 4.922c25.058 4.458 51.281 3.384 75.696-3.651a2.498 2.498 0 0 0 1.71-3.094zM159.043 146.234c-6.354-1.013-11.043-2.156-13.94-3.398-8.138-3.487-26.073-19.356-42.832-24.303a35.025 35.025 0 0 0 8.364-22.68c0-7.467-2.329-14.594-6.736-20.61a6.493 6.493 0 0 1-.739-6.437c2.296-5.385 3.179-11.098 2.623-16.982-1.594-16.874-15.55-30.43-32.464-31.534-9.788-.638-19.11 2.688-26.239 9.367a35.094 35.094 0 0 0-11.063 25.519c0 2.606.289 5.205.859 7.724.257 1.134.257 2.248.001 3.311-2.117 8.783-8.14 39.714 3.246 68.974a2.5 2.5 0 0 0 4.659-1.813c-10.858-27.903-5.076-57.563-3.044-65.989.437-1.816.442-3.695.015-5.585a30.054 30.054 0 0 1-.736-6.621c0-8.375 3.367-16.142 9.482-21.871 6.108-5.724 14.096-8.573 22.495-8.026 14.49.945 26.446 12.559 27.812 27.014.477 5.045-.279 9.941-2.245 14.551-1.615 3.788-1.127 8.031 1.304 11.352a29.683 29.683 0 0 1 5.77 17.656 30.019 30.019 0 0 1-9.893 22.24 2.501 2.501 0 0 0 1.245 4.318c16.73 2.918 36.582 20.922 46.146 25.02 3.275 1.404 8.363 2.662 15.123 3.74a2.5 2.5 0 0 0 .787-4.937zM72.833 194.489a2.5 2.5 0 0 0-2.266-1.444H59.552l8.016-9.545a2.5 2.5 0 0 0-3.829-3.215l-11.465 13.653a2.501 2.501 0 0 0 1.914 4.108h11.016l-8.017 9.546a2.5 2.5 0 0 0 3.829 3.215l11.466-13.654a2.499 2.499 0 0 0 .351-2.664zM85.5 207.174h-5a2.5 2.5 0 1 0 0 5h5a2.5 2.5 0 1 0 0-5zM206.175 112.519c-18.632 0-33.79 15.158-33.79 33.79 0 18.631 15.158 33.789 33.79 33.789s33.79-15.158 33.79-33.789c-.001-18.633-15.158-33.79-33.79-33.79zm0 62.578c-15.875 0-28.79-12.915-28.79-28.789s12.915-28.79 28.79-28.79 28.79 12.915 28.79 28.79-12.916 28.789-28.79 28.789z"/><path d="M206.175 129.141c-9.466 0-17.167 7.701-17.167 17.167s7.701 17.167 17.167 17.167 17.167-7.701 17.167-17.167-7.701-17.167-17.167-17.167zm0 29.334c-6.709 0-12.167-5.458-12.167-12.167s5.458-12.167 12.167-12.167 12.167 5.458 12.167 12.167-5.458 12.167-12.167 12.167zM83.634 132.563H42.366a6.43 6.43 0 0 0-6.422 6.421v6.512a6.43 6.43 0 0 0 6.422 6.422h41.268a6.43 6.43 0 0 0 6.422-6.422v-6.512a6.43 6.43 0 0 0-6.422-6.421zm1.422 12.934c0 .784-.638 1.422-1.422 1.422H42.366a1.424 1.424 0 0 1-1.422-1.422v-6.512c0-.784.638-1.421 1.422-1.421h41.268c.784 0 1.422.638 1.422 1.421v6.512zM86.044 155.985H39.956c-6.378 0-11.567 5.189-11.567 11.567v15.511a2.5 2.5 0 1 0 5 0v-15.511a6.575 6.575 0 0 1 6.567-6.567h46.089a6.575 6.575 0 0 1 6.567 6.567v56.667a6.575 6.575 0 0 1-6.567 6.567H39.956a6.575 6.575 0 0 1-6.567-6.567v-15.947a2.5 2.5 0 1 0-5 0v15.947c0 6.378 5.189 11.567 11.567 11.567h46.089c6.378 0 11.567-5.189 11.567-11.567v-56.667c-.001-6.378-5.19-11.567-11.568-11.567zM18 174.174c-4.962 0-9 4.038-9 9v11c0 4.962 4.038 9 9 9s9-4.038 9-9v-11c0-4.963-4.038-9-9-9zm4 20c0 2.206-1.794 4-4 4s-4-1.794-4-4v-11c0-2.206 1.794-4 4-4s4 1.794 4 4v11z"/><path d="M30.889 181.174c-4.901 0-8.889 4.038-8.889 9v11c0 4.962 3.987 9 8.889 9 5.024 0 9.111-4.038 9.111-9v-11c0-4.963-4.087-9-9.111-9zm4.111 20c0 2.168-1.883 4-4.111 4-2.181 0-3.889-1.757-3.889-4v-11c0-2.243 1.708-4 3.889-4 2.229 0 4.111 1.832 4.111 4v11zM94.375 171.143H31.917a2.5 2.5 0 1 0 0 5h62.458a2.5 2.5 0 1 0 0-5zM94.188 214.949H32a2.5 2.5 0 1 0 0 5h62.188a2.5 2.5 0 1 0 0-5zM83.024 147.594a2.5 2.5 0 0 0-2.5 2.5v7.687a2.5 2.5 0 1 0 5 0v-7.687a2.5 2.5 0 0 0-2.5-2.5zM42.976 147.708a2.5 2.5 0 0 0-2.5 2.5v7.375a2.5 2.5 0 1 0 5 0v-7.375a2.5 2.5 0 0 0-2.5-2.5z"/><path d="M23.646 186.174H12.344a2.5 2.5 0 1 0 0 5h11.302a2.5 2.5 0 1 0 0-5zM37 193.174H25.187a2.5 2.5 0 1 0 0 5H37a2.5 2.5 0 1 0 0-5z"/><path class="st5" d="M140.983 90.697c-4.498-.838-8.043-4.31-8.898-8.717a.2.2 0 0 0-.395 0c-.855 4.406-4.4 7.879-8.898 8.717a.195.195 0 0 0 0 .387c4.498.838 8.043 4.31 8.898 8.717a.2.2 0 0 0 .395 0c.855-4.406 4.4-7.879 8.898-8.717a.195.195 0 0 0 0-.387z"/><path class="st1" d="M182.993 204.778c-3.019-.562-5.399-2.894-5.973-5.851a.134.134 0 0 0-.265 0c-.574 2.958-2.954 5.289-5.973 5.851a.131.131 0 0 0 0 .26c3.019.563 5.399 2.894 5.973 5.852a.135.135 0 0 0 .265 0c.574-2.958 2.954-5.289 5.973-5.852a.131.131 0 0 0 0-.26z"/><path d="M21.694 131.302h-2.329v-2.33a3.156 3.156 0 1 0-6.314 0v2.33h-2.33a3.156 3.156 0 1 0 0 6.314h2.33v2.33a3.156 3.156 0 1 0 6.314 0v-2.33h2.329a3.156 3.156 0 1 0 0-6.314z" style="fill:#70d6f9"/><path d="M139.999 113.06a3.377 3.377 0 1 0 0 6.754 3.377 3.377 0 0 0 0-6.754z" style="fill:#87d147"/><path class="st5" d="M3.377 155.06a3.377 3.377 0 1 0 0 6.754 3.377 3.377 0 0 0 0-6.754z"/></g></svg>